<svg width="24" height="24" viewBox="0 0 24 24" fill="none" xmlns="http://www.w3.org/2000/svg">
<path d="M5.55472 8.39652C5.47546 8.45499 5.4085 8.52851 5.35766 8.61287C5.30681 8.69722 5.27308 8.79077 5.25839 8.88816C5.2437 8.98556 5.24834 9.08489 5.27204 9.18049C5.29574 9.27609 5.33803 9.36609 5.39652 9.44534C5.39652 9.44534 6.5129 10.9639 7.83988 12.4922C8.50336 13.2564 9.21856 14.0243 9.89847 14.625C10.5784 15.2258 11.1304 15.75 12 15.75C12.8697 15.75 13.4217 15.2258 14.1016 14.625C14.7815 14.0243 15.4967 13.2564 16.1602 12.4922C17.4872 10.9639 18.6035 9.44534 18.6035 9.44534C18.662 9.36609 18.7043 9.27609 18.728 9.18049C18.7517 9.08489 18.7564 8.98556 18.7417 8.88816C18.727 8.79077 18.6933 8.69722 18.6424 8.61287C18.5916 8.52851 18.5246 8.45499 18.4453 8.39652C18.3661 8.33803 18.2761 8.29574 18.1805 8.27204C18.0849 8.24834 17.9856 8.2437 17.8882 8.25839C17.7908 8.27308 17.6972 8.30681 17.6129 8.35766C17.5285 8.4085 17.455 8.47546 17.3965 8.55472C17.3965 8.55472 16.3051 10.0362 15.0274 11.5078C14.3885 12.2437 13.7008 12.9758 13.1075 13.5C12.5141 14.0243 11.921 14.25 12 14.25C12.0791 14.25 11.4859 14.0243 10.8926 13.5C10.2993 12.9758 9.61155 12.2437 8.97269 11.5078C7.69497 10.0362 6.60355 8.55472 6.60355 8.55472C6.54507 8.47546 6.47155 8.4085 6.3872 8.35766C6.30284 8.30681 6.20929 8.27308 6.1119 8.25839C6.01451 8.2437 5.91517 8.24834 5.81957 8.27204C5.72397 8.29574 5.63397 8.33803 5.55472 8.39652Z" fill="#666666"/>
</svg>
