<svg width="24" height="24" viewBox="0 0 24 24" fill="none" xmlns="http://www.w3.org/2000/svg">
<path fill-rule="evenodd" clip-rule="evenodd" d="M17.5002 7.25002C17.086 7.25002 16.7502 6.91423 16.7502 6.50002C16.7502 6.08581 17.086 5.75002 17.5002 5.75002C17.9144 5.75002 18.2502 6.08581 18.2502 6.50002C18.2502 6.91423 17.9144 7.25002 17.5002 7.25002ZM15.2502 6.50002C15.2502 7.74266 16.2576 8.75002 17.5002 8.75002C18.7428 8.75002 19.7502 7.74266 19.7502 6.50002C19.7502 5.25738 18.7428 4.25002 17.5002 4.25002C16.2576 4.25002 15.2502 5.25738 15.2502 6.50002Z" fill="#949494"/>
<path d="M16.9318 1.27151C15.18 1.19883 13.4148 1.32791 12.4982 1.41213C11.9323 1.46413 11.4043 1.69622 10.9826 2.05862C7.83106 4.7673 4.96002 7.57884 2.21501 10.6446C0.965372 12.0403 0.941581 14.1379 2.07634 15.6035C3.9399 18.0104 5.98978 20.0584 8.39665 21.9219C9.86226 23.0567 11.9599 23.0348 13.3556 21.7852C16.4214 19.0402 19.2328 16.1693 21.9416 13.0176C22.3041 12.5959 22.5361 12.0678 22.5881 11.502C22.6723 10.5854 22.8013 8.82016 22.7287 7.06838C22.6924 6.19249 22.6072 5.32167 22.4279 4.54104C22.2486 3.76041 21.9955 3.05395 21.4709 2.52932C20.9462 2.0047 20.2398 1.75158 19.4592 1.57229C18.6785 1.393 17.8077 1.30784 16.9318 1.27151ZM16.8693 2.76955C17.6868 2.80347 18.4826 2.88609 19.1232 3.03322C19.7638 3.18036 20.2325 3.41202 20.4103 3.58987C20.5882 3.7677 20.8198 4.23636 20.967 4.87697C21.1141 5.51759 21.1967 6.31338 21.2306 7.13088C21.2984 8.76589 21.1747 10.4862 21.0939 11.3653C21.0713 11.6116 20.972 11.8424 20.8029 12.0391C18.1348 15.1434 15.3735 17.9658 12.3556 20.668C11.5105 21.4246 10.2291 21.4429 9.31658 20.7363C7.00427 18.9461 5.05418 16.9959 3.26384 14.6836C2.55728 13.771 2.57554 12.4896 3.3322 11.6446C6.03435 8.6267 8.85689 5.8653 11.9611 3.19729C12.158 3.02813 12.3886 2.92891 12.6349 2.90627C13.514 2.8255 15.2343 2.70172 16.8693 2.76955Z" fill="#949494"/>
<path fill-rule="evenodd" clip-rule="evenodd" d="M14.5311 9.45602C14.824 9.74891 14.824 10.2238 14.5311 10.5167L14.2998 10.748C14.6211 11.3755 14.5685 12.0194 14.5444 12.3136C14.5414 12.3501 14.5388 12.3813 14.5375 12.4064C14.5155 12.82 14.1623 13.1375 13.7487 13.1154C13.3351 13.0934 13.0176 12.7403 13.0396 12.3266C13.0414 12.294 13.0432 12.2621 13.0449 12.231C13.0703 11.7798 13.0869 11.4842 12.8066 11.2279C12.7049 11.1349 12.5393 11.0262 12.2657 10.9298C11.9812 10.8295 11.5962 10.9399 11.3551 11.2276C11.2446 11.3594 11.1905 11.5013 11.186 11.6347C11.1819 11.7601 11.2191 11.9347 11.3912 12.1486C11.5159 12.3036 11.6339 12.4332 11.7552 12.5664C11.7604 12.5722 11.7656 12.5779 11.7708 12.5836C11.8906 12.7152 12.0299 12.8681 12.1493 13.0335C12.4242 13.414 12.5834 13.844 12.5527 14.4393C12.526 14.9579 12.2669 15.4169 11.941 15.7603C11.6094 16.1095 11.1657 16.3878 10.6675 16.5409C9.9939 16.748 9.30737 16.6224 8.7442 16.3036L8.53831 16.5095C8.24542 16.8023 7.77055 16.8023 7.47765 16.5095C7.18476 16.2166 7.18476 15.7417 7.47765 15.4488L7.68708 15.2394C7.35 14.6381 7.35364 14.0983 7.35523 13.8613C7.35541 13.8349 7.35556 13.8123 7.35522 13.7937C7.3475 13.3796 7.67697 13.0376 8.09111 13.0299C8.50525 13.0222 8.84724 13.3516 8.85496 13.7658C8.85576 13.8087 8.8558 13.8472 8.85585 13.883C8.85599 14.0015 8.85609 14.0904 8.8835 14.2156C8.91435 14.3565 8.98441 14.5397 9.1706 14.7477C9.47117 15.0836 9.90255 15.2068 10.2267 15.1071C10.4828 15.0284 10.7024 14.8863 10.8531 14.7276C11.0093 14.563 11.0514 14.4263 11.0547 14.3623C11.0667 14.1293 11.0209 14.033 10.9334 13.9119C10.8717 13.8265 10.7904 13.7349 10.6616 13.5933C10.6547 13.5858 10.6478 13.5782 10.6407 13.5704C10.5224 13.4406 10.3768 13.2806 10.2226 13.089C9.84873 12.6245 9.66946 12.1049 9.68685 11.5846C9.70397 11.0723 9.90959 10.6169 10.2056 10.2639C10.7773 9.58188 11.7923 9.17253 12.7644 9.51513C12.9267 9.57234 13.0777 9.63693 13.2177 9.70881L13.4705 9.45602C13.7634 9.16312 14.2382 9.16312 14.5311 9.45602Z" fill="#949494"/>
</svg>
